<?xml version="1.0" encoding="UTF-8" standalone="no"?>
<svg
   xmlns:dc="http://purl.org/dc/elements/1.1/"
   xmlns:cc="http://creativecommons.org/ns#"
   xmlns:rdf="http://www.w3.org/1999/02/22-rdf-syntax-ns#"
   xmlns:svg="http://www.w3.org/2000/svg"
   xmlns="http://www.w3.org/2000/svg"
   xmlns:sodipodi="http://sodipodi.sourceforge.net/DTD/sodipodi-0.dtd"
   xmlns:inkscape="http://www.inkscape.org/namespaces/inkscape"
   id="svg"
   width="400"
   height="400"
   viewBox="0, 0, 400,400"
   version="1.1"
   sodipodi:docname="icon.svg"
   inkscape:version="0.92.4 (unknown)">
  <metadata
     id="metadata3874">
    <rdf:RDF>
      <cc:Work
         rdf:about="">
        <dc:format>image/svg+xml</dc:format>
        <dc:type
           rdf:resource="http://purl.org/dc/dcmitype/StillImage" />
        <dc:title></dc:title>
      </cc:Work>
    </rdf:RDF>
  </metadata>
  <defs
     id="defs3872" />
  <sodipodi:namedview
     pagecolor="#ffffff"
     bordercolor="#666666"
     borderopacity="1"
     objecttolerance="10"
     gridtolerance="10"
     guidetolerance="10"
     inkscape:pageopacity="0"
     inkscape:pageshadow="2"
     inkscape:window-width="1920"
     inkscape:window-height="995"
     id="namedview3870"
     showgrid="false"
     inkscape:zoom="2.01"
     inkscape:cx="306.01865"
     inkscape:cy="220.09279"
     inkscape:window-x="0"
     inkscape:window-y="48"
     inkscape:window-maximized="1"
     inkscape:current-layer="svg" />
  <path
     style="fill:#f8901a;fill-rule:evenodd;stroke:none"
     inkscape:connector-curvature="0"
     d="m 313.076,118.704 c -21.39523,3.12591 -49.11967,11.33716 -72.854,13.532 -6.532,0.589 -7.217,2.04 -8.757,18.545 -3.30894,38.91944 -8.48455,72.18323 -11.403,106.87 -0.265,3.111 0.143,4.318 1.581,4.679 13.58936,-3.15861 31.6286,-7.21301 42.81,-12.055 1.983,-0.971 2.277,-1.45 4.843,-7.892 14.29984,-36.88042 31.04727,-75.36788 44.2,-108.789 1.946,-5.592 3.662,-9.692 4.818,-11.515 2.409,-3.799 0.089,-5.294 -5.238,-3.375 m -112.917,32.404 c -14.68944,8.36465 -29.04432,19.61689 -42.328,26.822 -7.656,3.901 -7.983,5.359 -4.91,21.875 5.03876,35.17861 9.63587,68.41439 13.931,102.539 0.676,5.441 1.764,5.733 5.485,1.472 8.22327,-8.85072 15.68639,-16.62438 23.959,-25.105 7.799,-7.989 7.312,-6.76 7.659,-19.336 0.963,-34.89 1.895,-106.752 1.404,-108.195 -0.697,-2.047 -2.13,-2.067 -5.2,-0.072 m -73.496,62.103 c -0.267,0.17 -3.168,3.835 -6.446,8.145 -10.98342,13.8435 -20.687512,27.26619 -31.252,41.03 -1.497,1.953 -1.457,4.036 0.12,6.364 15.32509,27.19364 38.40627,65.17322 47.68,80.859 1.438,2.993 3.11598,5.09222 4.935,6.171 0.563,-0.113 2.901,-5.005 4.411,-9.231 3.47923,-6.95883 6.09901,-14.86458 9.259,-21.158 1.532,-2.892 3.53805,-6.57205 2.05705,-9.47505 -1.60763,-6.50472 -22.78835,-67.17609 -28.33105,-97.87795 -0.609,-4.622 -1.13,-5.655 -2.433,-4.827"
     id="path0"
     sodipodi:nodetypes="cccccccccccccccccccccccccccccc" />
  <path
     style="fill:#4e4b4c;fill-rule:evenodd;stroke:none"
     inkscape:connector-curvature="0"
     d="m 243.458,48.219 c -1.127,0.273 -3.061,1.099 -4.297,1.834 -1.236,0.736 -4.356,2.377 -6.934,3.648 -5.418,2.669 -10.122,5.382 -11.524,6.644 -0.537,0.484 -2.031,1.542 -3.32,2.352 -4.636,2.912 -11.829,9.335 -19.355,17.283 -3.24,3.422 -4.173,3.404 -8.631,-0.166 -1.791,-1.434 -3.873,-2.963 -4.627,-3.397 -0.754,-0.435 -2.021,-1.336 -2.816,-2.002 -0.794,-0.667 -2.464,-1.528 -3.711,-1.913 -1.246,-0.385 -2.872,-1.049 -3.611,-1.476 -2.884,-1.664 -10.179,-2.913 -10.179,-1.742 0,0.294 0.659,0.978 1.465,1.52 3.395,2.286 8.625,7.849 9.828,10.455 0.643,1.391 1.528,3.057 1.967,3.702 2.86,4.201 -0.465,6.095 -5.754,3.278 -3.713,-1.977 -7.655,-2.057 -11.266,-0.227 -1.084,0.549 -3.368,1.347 -5.075,1.771 -1.707,0.425 -4.241,1.292 -5.63,1.926 -1.39,0.635 -3.582,1.455 -4.871,1.824 -1.289,0.368 -3.662,1.43 -5.273,2.359 -1.612,0.929 -4.539,2.576 -6.506,3.659 -7.643,4.208 -21.063,14.721 -26.248,20.561 -0.569,0.641 -2.208,2.399 -3.642,3.906 -4.577,4.81 -12.279,15.544 -14.876,20.731 -0.747,1.491 -2.408,4.735 -3.691,7.207 -1.282,2.472 -2.824,5.988 -3.426,7.813 -0.603,1.824 -1.488,4.108 -1.969,5.075 -0.481,0.967 -1.003,2.373 -1.16,3.125 -0.158,0.752 -0.894,2.949 -1.637,4.883 -1.331,3.464 -1.552,4.729 -2.865,16.406 -1.189,10.583 -1.192,24.346 -0.007,33.398 0.211,1.612 0.662,5.096 1.002,7.743 0.419,3.265 0.987,5.735 1.766,7.682 0.632,1.578 1.149,3.241 1.149,3.696 0,1.294 1.073,3.536 1.693,3.536 0.619,-10e-4 3.048,-2.537 3.801,-3.97 0.264,-0.502 1.144,-1.712 1.955,-2.689 7.43,-8.945 8.385,-10.934 6.972,-14.518 -2.476,-6.28 -2.34,-30.366 0.221,-39.204 0.316,-1.09 0.849,-3.287 1.185,-4.883 0.335,-1.595 1.121,-3.955 1.745,-5.244 0.625,-1.289 1.425,-3.626 1.778,-5.193 0.705,-3.125 4.044,-10.495 6.22,-13.729 0.761,-1.13 1.384,-2.233 1.384,-2.451 -0.001,-0.685 3.593,-6.281 5.25,-8.175 0.872,-0.998 2.464,-3.107 3.539,-4.687 2.478,-3.646 13.61,-14.735 17.046,-16.981 1.426,-0.932 3.799,-2.691 5.273,-3.907 1.474,-1.217 3.472,-2.561 4.438,-2.987 0.967,-0.425 2.286,-1.167 2.93,-1.647 2.019,-1.505 9.342,-5.18 11.954,-5.999 1.375,-0.431 3.696,-1.239 5.159,-1.796 1.615,-0.616 4.146,-1.164 6.445,-1.398 2.082,-0.211 4.233,-0.479 4.78,-0.594 4.336,-0.915 13.751,2.613 19.464,7.294 3.968,3.251 4.027,3.254 7.374,0.366 6.286,-5.424 15.127,-8.441 21.973,-7.498 1.611,0.222 3.97,0.504 5.241,0.626 1.272,0.123 3.382,0.668 4.688,1.212 1.306,0.543 3.254,1.25 4.328,1.57 1.075,0.319 3.788,1.496 6.031,2.613 5.379,2.681 11.503,2.591 19.917,-0.293 1.979,-0.679 3.733,-0.995 5.523,-0.995 3.07,0 4.709,-0.863 3.801,-2.002 -0.725,-0.909 -7.861,-5.795 -10.858,-7.434 -5.701,-3.118 -7.297,-4.048 -8.764,-5.103 -0.845,-0.608 -2.515,-1.378 -3.711,-1.71 -1.195,-0.332 -3.931,-1.283 -6.079,-2.113 -2.149,-0.83 -4.961,-1.85 -6.25,-2.268 -1.289,-0.418 -3.656,-1.239 -5.258,-1.825 -4.286,-1.568 -9.516,-1.358 -12.312,0.493 -6.011,3.982 -6.357,-2.564 -0.467,-8.822 1.151,-1.223 2.806,-3.203 3.677,-4.399 4.035,-5.54 16.085,-17.519 20.805,-20.682 2.955,-1.981 7.422,-5.758 7.422,-6.277 0,-0.489 -2.115,-0.394 -4.589,0.205 m 69.517,131.176 c -0.22,0.268 -0.699,1.543 -1.063,2.832 -0.364,1.289 -1.145,3.222 -1.735,4.296 -0.591,1.075 -1.464,3.169 -1.94,4.654 -0.477,1.486 -1.272,3.507 -1.768,4.492 -0.495,0.986 -1.2,2.847 -1.567,4.136 -0.367,1.289 -1.109,3.134 -1.648,4.101 -2.202,3.949 -4.016,10.091 -4.613,15.625 -0.977,9.044 -1.402,11.437 -2.536,14.281 -0.605,1.517 -1.377,3.839 -1.715,5.16 -0.339,1.322 -1.134,3.333 -1.767,4.47 -0.633,1.136 -1.513,3.296 -1.956,4.8 -0.782,2.654 -3.272,7.397 -4.715,8.985 -0.391,0.429 -1.266,1.836 -1.945,3.125 -2,3.798 -4.309,7.268 -5.512,8.28 -0.617,0.519 -1.753,1.983 -2.524,3.252 -0.771,1.27 -2.329,3.149 -3.461,4.177 -1.132,1.028 -2.661,2.634 -3.398,3.57 -0.736,0.935 -2.481,2.595 -3.878,3.688 -1.396,1.093 -3.508,2.908 -4.693,4.033 -1.184,1.124 -3.144,2.629 -4.354,3.342 -1.211,0.714 -4.094,2.583 -6.408,4.153 -4.455,3.022 -9.105,5.54 -11.693,6.331 -0.859,0.263 -2.47,0.988 -3.58,1.612 -4.22,2.375 -13.084,4.947 -18.771,5.448 -2.411,0.212 -5.223,0.646 -6.25,0.964 -2.649,0.821 -10.518,1.716 -15.344,1.745 -2.337,0.015 -4.528,0.228 -5.092,0.496 -2.164,1.029 -5.925,4.414 -7.176,6.459 -0.829,1.356 -2.261,2.856 -3.937,4.126 -5.47,4.143 -5.035,5.202 2.396,5.83 13.742,1.162 35.186,0.156 40.892,-1.918 1.54,-0.56 4.576,-1.428 6.748,-1.929 2.171,-0.501 5.335,-1.437 7.031,-2.08 1.696,-0.643 4.138,-1.371 5.427,-1.619 1.36,-0.261 3.013,-0.92 3.937,-1.569 0.877,-0.615 2.371,-1.425 3.321,-1.801 0.949,-0.375 2.545,-1.182 3.546,-1.793 1.001,-0.61 2.671,-1.395 3.711,-1.744 1.04,-0.35 2.424,-1.097 3.076,-1.66 1.096,-0.949 3.96,-2.883 8.457,-5.711 9.721,-6.114 28.05,-25.695 32.769,-35.007 0.471,-0.93 1.347,-2.314 1.947,-3.076 0.599,-0.762 1.536,-2.396 2.083,-3.632 0.546,-1.236 1.326,-2.722 1.733,-3.303 0.407,-0.58 1.052,-2.022 1.435,-3.203 0.382,-1.182 1.217,-3.193 1.856,-4.469 0.638,-1.276 1.422,-3.202 1.742,-4.28 0.32,-1.078 1.082,-2.896 1.693,-4.041 0.611,-1.146 1.223,-2.911 1.361,-3.924 0.138,-1.013 1.024,-5.708 1.969,-10.435 4.213,-21.057 2.741,-57.146 -2.091,-51.269"
     id="path1" />
</svg>
